<?xml version="1.0" standalone="no"?>
<!DOCTYPE svg PUBLIC "-//W3C//DTD SVG 20010904//EN"
 "http://www.w3.org/TR/2001/REC-SVG-20010904/DTD/svg10.dtd">
<svg version="1.0" xmlns="http://www.w3.org/2000/svg"
 width="1200.000000pt" height="960.000000pt" viewBox="0 0 1200.000000 960.000000"
 preserveAspectRatio="xMidYMid meet">

<g transform="translate(0.000000,960.000000) scale(0.100000,-0.100000)"
fill="#000000" stroke="none">
<path d="M0 4800 l0 -4800 6000 0 6000 0 0 4800 0 4800 -6000 0 -6000 0 0
-4800z m7550 3295 l0 -265 -590 0 -590 0 0 -175 0 -175 628 0 627 0 60 -29
c74 -35 134 -99 163 -177 20 -50 22 -75 22 -259 l0 -203 268 -4 c265 -3 267
-3 324 -30 114 -53 154 -109 206 -288 38 -130 203 -730 253 -922 l10 -38 149
0 c83 0 150 2 150 6 0 3 47 150 104 327 57 177 134 417 171 532 75 235 95 275
161 334 83 72 131 81 443 80 146 0 338 -4 426 -8 183 -7 225 -21 295 -97 72
-78 83 -114 135 -434 66 -407 112 -846 146 -1395 17 -279 23 -1206 10 -1525
-13 -301 -13 -301 -36 -615 -41 -530 -131 -1202 -175 -1302 -27 -60 -94 -129
-159 -160 l-56 -28 -450 0 -450 0 -56 26 c-64 30 -120 82 -148 137 -16 32 -61
169 -180 557 -11 33 -42 132 -69 220 -28 88 -62 196 -75 240 l-25 80 -153 0
-154 0 -77 -275 c-42 -151 -109 -390 -149 -530 -39 -140 -82 -274 -95 -297
-38 -65 -108 -121 -183 -143 -65 -20 -93 -20 -2201 -18 l-2135 3 -55 28 c-77
40 -87 50 -237 252 -74 99 -139 187 -146 195 -7 8 -56 74 -109 145 -221 299
-411 553 -449 603 l-40 52 -504 0 c-497 0 -504 0 -562 22 -70 27 -139 92 -174
163 l-24 50 -3 788 -2 787 -135 0 -135 0 0 -745 0 -745 -325 0 -325 0 0 1820
0 1820 325 0 325 0 0 -745 0 -745 135 0 135 0 2 788 3 787 24 53 c29 65 112
143 178 168 43 16 90 19 461 22 l412 3 0 167 c0 92 4 192 9 224 19 116 80 201
177 249 l49 24 703 3 702 2 0 175 0 175 -655 0 -655 0 0 265 0 265 2175 0
2175 0 0 -265z"/>
<path d="M3530 6633 c0 -208 -8 -260 -50 -328 -29 -47 -94 -103 -148 -128 -46
-21 -60 -22 -469 -25 l-423 -3 0 -1490 0 -1489 425 0 c403 0 427 -1 479 -20
30 -12 66 -30 81 -42 26 -20 104 -112 135 -157 8 -12 23 -32 32 -44 10 -12
101 -134 204 -272 102 -137 267 -359 367 -493 l181 -242 1869 2 1870 3 27 95
c16 52 51 176 78 275 159 570 196 694 217 731 31 53 95 111 154 138 45 21 57
21 526 21 469 0 481 0 526 -21 56 -26 120 -82 151 -132 12 -20 97 -278 189
-572 l166 -535 101 -3 c99 -3 102 -2 107 20 8 36 52 378 69 538 104 973 110
1876 21 2855 -17 182 -77 669 -96 773 l-11 62 -97 0 -96 0 -120 -378 c-165
-520 -224 -701 -237 -725 -22 -41 -94 -110 -143 -135 l-50 -27 -490 0 -490 0
-45 24 c-60 31 -117 86 -145 141 -12 25 -84 268 -159 540 -76 272 -142 509
-147 527 l-10 32 -307 3 -307 3 -58 27 c-74 35 -140 104 -167 174 -18 49 -20
78 -20 264 l0 210 -1845 0 -1845 0 0 -197z"/>
</g>
</svg>
