<?xml version="1.0" encoding="utf-8"?>
<!-- Generator: Adobe Illustrator 19.0.0, SVG Export Plug-In . SVG Version: 6.00 Build 0)  -->
<svg version="1.1" id="Layer_1" xmlns="http://www.w3.org/2000/svg" xmlns:xlink="http://www.w3.org/1999/xlink" x="0px" y="0px"
	 viewBox="-479 601 1200 960" style="enable-background:new -479 601 1200 960;" xml:space="preserve">
<style type="text/css">
	.st0{fill:#FFA733;}
</style>
<path class="st0" d="M632.1,1073.5c-3.4-54.9-8-98.8-14.6-139.5c-5.2-32-6.3-35.6-13.5-43.4c-7-7.6-11.2-9-29.5-9.7
	c-8.8-0.4-28-0.8-42.6-0.8c-31.2-0.1-36,0.8-44.3,8c-6.6,5.9-8.6,9.9-16.1,33.4c-3.7,11.5-11.4,35.5-17.1,53.2
	c-5.7,17.7-10.4,32.4-10.4,32.7c0,0.4-6.7,0.6-15,0.6h-14.9l-1-3.8c-5-19.2-21.5-79.2-25.3-92.2c-5.2-17.9-9.2-23.5-20.6-28.8
	c-5.7-2.7-5.9-2.7-32.4-3l-26.8-0.4v-20.3c0-18.4-0.2-20.9-2.2-25.9c-2.9-7.8-8.9-14.2-16.3-17.7l-6-2.9h-62.7H158v-17.5V778h59h59
	v-26.5V725H58.5H-159v26.5V778h65.5H-28v17.5V813l-70.2,0.2l-70.3,0.3l-4.9,2.4c-9.7,4.8-15.8,13.3-17.7,24.9
	c-0.5,3.2-0.9,13.2-0.9,22.4v16.7l-41.2,0.3c-37.1,0.3-41.8,0.6-46.1,2.2c-6.6,2.5-14.9,10.3-17.8,16.8l-2.4,5.3l-0.3,78.7
	l-0.2,78.8h-13.5H-327v-74.5V913h-32.5H-392v182v182h32.5h32.5v-74.5V1128h13.5h13.5l0.2,78.7l0.3,78.8l2.4,5
	c3.5,7.1,10.4,13.6,17.4,16.3c5.8,2.2,6.5,2.2,56.2,2.2h50.4l4,5.2c3.8,5,22.8,30.4,44.9,60.3c5.3,7.1,10.2,13.7,10.9,14.5
	s7.2,9.6,14.6,19.5c15,20.2,16,21.2,23.7,25.2l5.5,2.8l213.5,0.3c210.8,0.2,213.6,0.2,220.1-1.8c7.5-2.2,14.5-7.8,18.3-14.3
	c1.3-2.3,5.6-15.7,9.5-29.7c4-14,10.7-37.9,14.9-53l7.7-27.5h15.4h15.3l2.5,8c1.3,4.4,4.7,15.2,7.5,24c2.7,8.8,5.8,18.7,6.9,22
	c11.9,38.8,16.4,52.5,18,55.7c2.8,5.5,8.4,10.7,14.8,13.7l5.6,2.6h45h45l5.6-2.8c6.5-3.1,13.2-10,15.9-16
	c4.4-10,13.4-77.2,17.5-130.2c2.3-31.4,2.3-31.4,3.6-61.5C634.4,1194.1,633.8,1101.4,632.1,1073.5z M560.4,1315
	c-1.7,16-6.1,50.2-6.9,53.8c-0.5,2.2-0.8,2.3-10.7,2l-10.1-0.3l-16.6-53.5c-9.2-29.4-17.7-55.2-18.9-57.2c-3.1-5-9.5-10.6-15.1-13.2
	c-4.5-2.1-5.7-2.1-52.6-2.1c-46.9,0-48.1,0-52.6,2.1c-5.9,2.7-12.3,8.5-15.4,13.8c-2.1,3.7-5.8,16.1-21.7,73.1
	c-2.7,9.9-6.2,22.3-7.8,27.5l-2.7,9.5l-187,0.3l-186.9,0.2l-18.1-24.2c-10-13.4-26.5-35.6-36.7-49.3c-10.3-13.8-19.4-26-20.4-27.2
	c-0.9-1.2-2.4-3.2-3.2-4.4c-3.1-4.5-10.9-13.7-13.5-15.7c-1.5-1.2-5.1-3-8.1-4.2c-5.2-1.9-7.6-2-47.9-2H-235v-148.9v-149l42.3-0.3
	c40.9-0.3,42.3-0.4,46.9-2.5c5.4-2.5,11.9-8.1,14.8-12.8c4.2-6.8,5-12,5-32.8V878H58.5H243v21c0,18.6,0.2,21.5,2,26.4
	c2.7,7,9.3,13.9,16.7,17.4l5.8,2.7l30.7,0.3l30.7,0.3l1,3.2c0.5,1.8,7.1,25.5,14.7,52.7c7.5,27.2,14.7,51.5,15.9,54
	c2.8,5.5,8.5,11,14.5,14.1l4.5,2.4h49h49l5-2.7c4.9-2.5,12.1-9.4,14.3-13.5c1.3-2.4,7.2-20.5,23.7-72.5l12-37.8h9.6h9.7l1.1,6.2
	c1.9,10.4,7.9,59.1,9.6,77.3C571.4,1127.4,570.8,1217.7,560.4,1315z"/>
</svg>
