<?xml version="1.0" standalone="no"?>
<!DOCTYPE svg PUBLIC "-//W3C//DTD SVG 20010904//EN"
 "http://www.w3.org/TR/2001/REC-SVG-20010904/DTD/svg10.dtd">
<svg version="1.0" xmlns="http://www.w3.org/2000/svg"
 width="121.000000pt" height="123.000000pt" viewBox="0 0 121.000000 123.000000"
 preserveAspectRatio="xMidYMid meet">

<g transform="translate(0.000000,123.000000) scale(0.100000,-0.100000)"
fill="#000000" stroke="none">
<path d="M480 1150 l0 -50 -160 0 -160 0 0 -120 c0 -110 -2 -122 -24 -155 -14
-20 -30 -53 -36 -73 -6 -20 -15 -46 -20 -57 -28 -62 -33 -225 -8 -225 6 0 7
-8 4 -17 -7 -17 46 -154 71 -184 9 -11 13 -49 13 -127 l0 -112 480 0 480 0 0
535 0 535 -60 0 c-44 0 -60 4 -60 14 0 7 -9 16 -20 19 -15 4 -20 14 -20 36 l0
31 -240 0 -240 0 0 -50z"/>
</g>
</svg>
